<mxfile host="app.diagrams.net" modified="2023-10-17T07:51:25.918Z" agent="Mozilla/5.0 (Windows NT 10.0; Win64; x64) AppleWebKit/537.36 (KHTML, like Gecko) Chrome/117.0.0.0 Safari/537.36 Edg/117.0.2045.60" etag="6dqsyS0rwwkMzdAPDULv" version="22.0.4" type="github">
  <diagram name="第 1 页" id="VbRBb_So4jhRRbxiABk3">
    <mxGraphModel dx="1426" dy="759" grid="1" gridSize="10" guides="1" tooltips="1" connect="1" arrows="1" fold="1" page="1" pageScale="1" pageWidth="827" pageHeight="1169" math="0" shadow="0">
      <root>
        <mxCell id="0" />
        <mxCell id="1" parent="0" />
        <mxCell id="YQNuyJ3bd6vN9Ldf_mTz-1" value="" style="points=[[0.015,0.14,0],[0.5,0,0],[0.985,0.14,0],[1,0.57,0],[0.99,0.98,0],[0.5,1,0],[0.01,0.98,0],[0,0.57,0]];verticalLabelPosition=bottom;sketch=0;html=1;verticalAlign=top;aspect=fixed;align=center;pointerEvents=1;shape=mxgraph.cisco19.tablet;fillColor=#005073;strokeColor=none;" vertex="1" parent="1">
          <mxGeometry x="399" y="50" width="90" height="72" as="geometry" />
        </mxCell>
        <mxCell id="YQNuyJ3bd6vN9Ldf_mTz-5" value="" style="image;aspect=fixed;perimeter=ellipsePerimeter;html=1;align=center;shadow=0;dashed=0;spacingTop=3;image=img/lib/active_directory/sql_server.svg;" vertex="1" parent="1">
          <mxGeometry x="820" y="228.5" width="88.5" height="114.94" as="geometry" />
        </mxCell>
        <mxCell id="YQNuyJ3bd6vN9Ldf_mTz-9" style="edgeStyle=orthogonalEdgeStyle;rounded=0;orthogonalLoop=1;jettySize=auto;html=1;entryX=1;entryY=1;entryDx=0;entryDy=0;" edge="1" parent="1" source="YQNuyJ3bd6vN9Ldf_mTz-8" target="YQNuyJ3bd6vN9Ldf_mTz-5">
          <mxGeometry relative="1" as="geometry">
            <mxPoint x="754" y="350" as="targetPoint" />
          </mxGeometry>
        </mxCell>
        <mxCell id="YQNuyJ3bd6vN9Ldf_mTz-8" value="" style="verticalLabelPosition=bottom;aspect=fixed;html=1;shape=mxgraph.salesforce.web;" vertex="1" parent="1">
          <mxGeometry x="860" y="510" width="157.33" height="124.29" as="geometry" />
        </mxCell>
        <mxCell id="YQNuyJ3bd6vN9Ldf_mTz-10" value="" style="swimlane;whiteSpace=wrap;html=1;startSize=23;" vertex="1" parent="1">
          <mxGeometry x="330" y="220" width="234" height="240" as="geometry">
            <mxRectangle x="280" y="180" width="50" height="40" as="alternateBounds" />
          </mxGeometry>
        </mxCell>
        <mxCell id="YQNuyJ3bd6vN9Ldf_mTz-31" value="&lt;font style=&quot;font-size: 15px;&quot;&gt;1.保存压缩包&lt;/font&gt;" style="text;html=1;align=center;verticalAlign=middle;resizable=0;points=[];autosize=1;strokeColor=none;fillColor=none;labelBorderColor=default;" vertex="1" parent="YQNuyJ3bd6vN9Ldf_mTz-10">
          <mxGeometry x="29" y="40.00000000000003" width="110" height="30" as="geometry" />
        </mxCell>
        <mxCell id="YQNuyJ3bd6vN9Ldf_mTz-35" style="edgeStyle=orthogonalEdgeStyle;rounded=0;orthogonalLoop=1;jettySize=auto;html=1;" edge="1" parent="YQNuyJ3bd6vN9Ldf_mTz-10" source="YQNuyJ3bd6vN9Ldf_mTz-34">
          <mxGeometry relative="1" as="geometry">
            <mxPoint x="-210" y="95" as="targetPoint" />
          </mxGeometry>
        </mxCell>
        <mxCell id="YQNuyJ3bd6vN9Ldf_mTz-34" value="&lt;font style=&quot;font-size: 15px;&quot;&gt;2.根据路径下载压缩包&lt;/font&gt;" style="text;html=1;align=center;verticalAlign=middle;resizable=0;points=[];autosize=1;strokeColor=none;fillColor=none;labelBorderColor=default;" vertex="1" parent="YQNuyJ3bd6vN9Ldf_mTz-10">
          <mxGeometry x="30" y="80" width="170" height="30" as="geometry" />
        </mxCell>
        <mxCell id="YQNuyJ3bd6vN9Ldf_mTz-38" value="&lt;font style=&quot;font-size: 15px;&quot;&gt;3.算法服务器提取图片特征&lt;/font&gt;" style="text;html=1;align=center;verticalAlign=middle;resizable=0;points=[];autosize=1;strokeColor=none;fillColor=none;labelBorderColor=default;" vertex="1" parent="YQNuyJ3bd6vN9Ldf_mTz-10">
          <mxGeometry x="29" y="140" width="200" height="30" as="geometry" />
        </mxCell>
        <mxCell id="YQNuyJ3bd6vN9Ldf_mTz-51" value="&lt;font style=&quot;font-size: 15px;&quot;&gt;4.计算上下车图片相似度&lt;/font&gt;" style="text;html=1;align=center;verticalAlign=middle;resizable=0;points=[];autosize=1;strokeColor=none;fillColor=none;labelBorderColor=default;" vertex="1" parent="YQNuyJ3bd6vN9Ldf_mTz-10">
          <mxGeometry x="29" y="190" width="190" height="30" as="geometry" />
        </mxCell>
        <mxCell id="YQNuyJ3bd6vN9Ldf_mTz-18" value="客流设备" style="text;strokeColor=none;fillColor=none;html=1;fontSize=24;fontStyle=1;verticalAlign=middle;align=center;" vertex="1" parent="1">
          <mxGeometry x="394" y="10" width="100" height="40" as="geometry" />
        </mxCell>
        <mxCell id="YQNuyJ3bd6vN9Ldf_mTz-21" value="数据库(分储)" style="text;strokeColor=none;fillColor=none;html=1;fontSize=24;fontStyle=1;verticalAlign=middle;align=center;" vertex="1" parent="1">
          <mxGeometry x="808.5" y="188.5" width="100" height="40" as="geometry" />
        </mxCell>
        <mxCell id="YQNuyJ3bd6vN9Ldf_mTz-22" value="大数据端展示" style="text;strokeColor=none;fillColor=none;html=1;fontSize=24;fontStyle=1;verticalAlign=middle;align=center;" vertex="1" parent="1">
          <mxGeometry x="970" y="460" width="100" height="40" as="geometry" />
        </mxCell>
        <mxCell id="YQNuyJ3bd6vN9Ldf_mTz-23" value="" style="sketch=0;outlineConnect=0;fontColor=#232F3E;gradientColor=none;fillColor=#01A88D;strokeColor=none;dashed=0;verticalLabelPosition=bottom;verticalAlign=top;align=center;html=1;fontSize=12;fontStyle=0;aspect=fixed;shape=mxgraph.aws4.transfer_for_ftp_resource;" vertex="1" parent="1">
          <mxGeometry x="20" y="236.7" width="96" height="98.53" as="geometry" />
        </mxCell>
        <mxCell id="YQNuyJ3bd6vN9Ldf_mTz-28" value="&lt;span style=&quot;font-size: 16px;&quot;&gt;下载ZIP到服务器&lt;/span&gt;" style="text;html=1;strokeColor=none;fillColor=none;align=center;verticalAlign=middle;whiteSpace=wrap;rounded=0;" vertex="1" parent="1">
          <mxGeometry x="160" y="279.17" width="140" height="30" as="geometry" />
        </mxCell>
        <mxCell id="YQNuyJ3bd6vN9Ldf_mTz-33" value="" style="edgeStyle=orthogonalEdgeStyle;rounded=0;orthogonalLoop=1;jettySize=auto;html=1;" edge="1" parent="1" source="YQNuyJ3bd6vN9Ldf_mTz-30" target="YQNuyJ3bd6vN9Ldf_mTz-1">
          <mxGeometry relative="1" as="geometry" />
        </mxCell>
        <mxCell id="YQNuyJ3bd6vN9Ldf_mTz-30" value="应答" style="text;html=1;strokeColor=none;fillColor=none;align=center;verticalAlign=middle;whiteSpace=wrap;rounded=0;" vertex="1" parent="1">
          <mxGeometry x="414" y="170" width="60" height="30" as="geometry" />
        </mxCell>
        <mxCell id="YQNuyJ3bd6vN9Ldf_mTz-32" value="" style="edgeStyle=orthogonalEdgeStyle;rounded=0;orthogonalLoop=1;jettySize=auto;html=1;" edge="1" parent="1" source="YQNuyJ3bd6vN9Ldf_mTz-31" target="YQNuyJ3bd6vN9Ldf_mTz-30">
          <mxGeometry relative="1" as="geometry" />
        </mxCell>
        <mxCell id="YQNuyJ3bd6vN9Ldf_mTz-37" value="&lt;font style=&quot;font-size: 14px;&quot;&gt;zip路径保存到od_data&lt;/font&gt;" style="text;html=1;strokeColor=none;fillColor=none;align=center;verticalAlign=middle;whiteSpace=wrap;rounded=0;" vertex="1" parent="1">
          <mxGeometry x="540" y="279.17" width="240" height="20.83" as="geometry" />
        </mxCell>
        <mxCell id="YQNuyJ3bd6vN9Ldf_mTz-41" value="" style="image;sketch=0;aspect=fixed;html=1;points=[];align=center;fontSize=12;image=img/lib/mscae/Cognitive_Services.svg;" vertex="1" parent="1">
          <mxGeometry y="360" width="130" height="78" as="geometry" />
        </mxCell>
        <mxCell id="YQNuyJ3bd6vN9Ldf_mTz-42" style="edgeStyle=orthogonalEdgeStyle;rounded=0;orthogonalLoop=1;jettySize=auto;html=1;entryX=1.038;entryY=0.192;entryDx=0;entryDy=0;entryPerimeter=0;" edge="1" parent="1" source="YQNuyJ3bd6vN9Ldf_mTz-38" target="YQNuyJ3bd6vN9Ldf_mTz-41">
          <mxGeometry relative="1" as="geometry" />
        </mxCell>
        <mxCell id="YQNuyJ3bd6vN9Ldf_mTz-43" value="&lt;span style=&quot;font-size: 16px;&quot;&gt;提取每个图片特征&lt;/span&gt;" style="text;html=1;strokeColor=none;fillColor=none;align=center;verticalAlign=middle;whiteSpace=wrap;rounded=0;" vertex="1" parent="1">
          <mxGeometry x="170" y="343.44" width="140" height="30" as="geometry" />
        </mxCell>
        <mxCell id="YQNuyJ3bd6vN9Ldf_mTz-44" style="edgeStyle=orthogonalEdgeStyle;rounded=0;orthogonalLoop=1;jettySize=auto;html=1;entryX=0.25;entryY=1;entryDx=0;entryDy=0;" edge="1" parent="1" source="YQNuyJ3bd6vN9Ldf_mTz-38" target="YQNuyJ3bd6vN9Ldf_mTz-5">
          <mxGeometry relative="1" as="geometry" />
        </mxCell>
        <mxCell id="YQNuyJ3bd6vN9Ldf_mTz-45" value="&lt;span style=&quot;font-size: 16px;&quot;&gt;特征值保存od_pic_detail&lt;/span&gt;" style="text;html=1;strokeColor=none;fillColor=none;align=center;verticalAlign=middle;whiteSpace=wrap;rounded=0;" vertex="1" parent="1">
          <mxGeometry x="570" y="343.44" width="240" height="30" as="geometry" />
        </mxCell>
        <mxCell id="YQNuyJ3bd6vN9Ldf_mTz-48" value="FTP服务器" style="text;strokeColor=none;fillColor=none;html=1;fontSize=24;fontStyle=1;verticalAlign=middle;align=center;" vertex="1" parent="1">
          <mxGeometry x="18" y="196.7" width="100" height="40" as="geometry" />
        </mxCell>
        <mxCell id="YQNuyJ3bd6vN9Ldf_mTz-49" value="算法服务器" style="text;strokeColor=none;fillColor=none;html=1;fontSize=24;fontStyle=1;verticalAlign=middle;align=center;" vertex="1" parent="1">
          <mxGeometry x="10" y="438" width="100" height="40" as="geometry" />
        </mxCell>
        <mxCell id="YQNuyJ3bd6vN9Ldf_mTz-46" style="edgeStyle=orthogonalEdgeStyle;rounded=0;orthogonalLoop=1;jettySize=auto;html=1;entryX=-0.045;entryY=0.753;entryDx=0;entryDy=0;entryPerimeter=0;" edge="1" parent="1" source="YQNuyJ3bd6vN9Ldf_mTz-34" target="YQNuyJ3bd6vN9Ldf_mTz-5">
          <mxGeometry relative="1" as="geometry">
            <mxPoint x="710" y="315" as="targetPoint" />
          </mxGeometry>
        </mxCell>
        <mxCell id="YQNuyJ3bd6vN9Ldf_mTz-55" style="edgeStyle=orthogonalEdgeStyle;rounded=0;orthogonalLoop=1;jettySize=auto;html=1;entryX=0.5;entryY=1;entryDx=0;entryDy=0;" edge="1" parent="1" source="YQNuyJ3bd6vN9Ldf_mTz-51" target="YQNuyJ3bd6vN9Ldf_mTz-5">
          <mxGeometry relative="1" as="geometry" />
        </mxCell>
        <mxCell id="YQNuyJ3bd6vN9Ldf_mTz-56" value="&lt;font style=&quot;font-size: 13px;&quot;&gt;相似度最大的两张图片记录od_pic_match&lt;/font&gt;" style="text;html=1;strokeColor=none;fillColor=none;align=center;verticalAlign=middle;whiteSpace=wrap;rounded=0;" vertex="1" parent="1">
          <mxGeometry x="580" y="390" width="240" height="30" as="geometry" />
        </mxCell>
      </root>
    </mxGraphModel>
  </diagram>
</mxfile>
